<svg width="14" height="14" viewBox="0 0 14 14" fill="none" xmlns="http://www.w3.org/2000/svg">
<path d="M9.91669 7.58268H7.58335V9.91602H6.41669V7.58268H4.08335V6.41602H6.41669V4.08268H7.58335V6.41602H9.91669V7.58268ZM7.00002 1.16602C6.23398 1.16602 5.47543 1.3169 4.7677 1.61005C4.05997 1.9032 3.41691 2.33288 2.87523 2.87456C1.78127 3.96852 1.16669 5.45225 1.16669 6.99935C1.16669 8.54644 1.78127 10.0302 2.87523 11.1241C3.41691 11.6658 4.05997 12.0955 4.7677 12.3886C5.47543 12.6818 6.23398 12.8327 7.00002 12.8327C8.54712 12.8327 10.0308 12.2181 11.1248 11.1241C12.2188 10.0302 12.8334 8.54644 12.8334 6.99935C12.8334 6.2333 12.6825 5.47476 12.3893 4.76703C12.0962 4.0593 11.6665 3.41623 11.1248 2.87456C10.5831 2.33288 9.94007 1.9032 9.23234 1.61005C8.52461 1.3169 7.76607 1.16602 7.00002 1.16602Z" fill="#00ADEF"/>
</svg>
