<svg width="150" height="94" viewBox="0 0 150 94" fill="none" xmlns="http://www.w3.org/2000/svg">
<path d="M35.77 79.4422V83.6622H36.69C36.0033 85.1348 35.8595 86.8028 36.2841 88.3711C36.7087 89.9395 37.6743 91.3072 39.01 92.2322V93.5072H48.15V92.2322C49.4841 91.3058 50.4481 89.9378 50.8716 88.3697C51.2952 86.8017 51.1512 85.1344 50.465 83.6622H51.39V79.4422H44.23V78.1972C62.02 74.2572 45.815 48.6572 45.815 48.6572C26.505 70.4272 41.815 77.4822 43.63 78.2222V79.4422H35.77Z" fill="#E8F1F8"/>
<path d="M14 85.1024V87.6024H14.55C14.1407 88.483 14.0551 89.4799 14.3085 90.4173C14.5618 91.3548 15.1378 92.1729 15.935 92.7274V93.4874H21.4V92.7274C21.9421 92.3527 22.3862 91.8533 22.6951 91.2712C23.004 90.6891 23.1686 90.0414 23.175 89.3824C23.1752 88.7807 23.042 88.1865 22.785 87.6424H23.34V85.1424H19.06V84.3924C29.695 82.0374 20.005 66.7324 20.005 66.7324C8.46 79.7324 17.605 83.9674 18.7 84.4074V85.1424L14 85.1024Z" fill="#E8F1F8"/>
<path d="M69.7642 90.8719C75.1907 90.6971 80.336 88.4356 84.1123 84.5653C87.8886 80.6951 90 75.5195 90 70.1328C90 64.7461 87.8886 59.5705 84.1123 55.7003C80.336 51.83 75.1907 49.5685 69.7642 49.3937H69.0927C66.2906 49.3035 63.4988 49.7732 60.8832 50.7748C58.2677 51.7764 55.8818 53.2895 53.8675 55.2243C51.8531 57.159 50.2514 59.4758 49.1576 62.0369C48.0637 64.598 47.5 67.3512 47.5 70.1328C47.5 72.9144 48.0637 75.6676 49.1576 78.2287C50.2514 80.7899 51.8531 83.1066 53.8675 85.0414C55.8818 86.9761 58.2677 88.4892 60.8832 89.4908C63.4988 90.4925 66.2906 90.9621 69.0927 90.8719H69.7642ZM54.5702 70.1219C54.5769 66.3033 56.1094 62.6431 58.8317 59.9436C61.5539 57.2441 65.2439 55.7255 69.0927 55.7207H69.7642C73.5763 55.7808 77.2118 57.3254 79.8862 60.0214C82.5606 62.7173 84.0596 66.3483 84.0596 70.131C84.0596 73.9137 82.5606 77.5447 79.8862 80.2406C77.2118 82.9365 73.5763 84.4812 69.7642 84.5413H69.0927C65.2407 84.5365 61.548 83.0154 58.8252 80.312C56.1024 77.6085 54.5721 73.9437 54.5702 70.1219Z" fill="#E8F1F8"/>
<g style="mix-blend-mode:multiply">
<path d="M19.195 13.7178C18.3526 13.7171 17.5399 14.0293 16.9145 14.5937C16.2891 15.1582 15.8955 15.9347 15.81 16.7728C15.3417 16.4866 14.8039 16.3344 14.255 16.3328C13.8653 16.3328 13.4793 16.4096 13.1192 16.559C12.7592 16.7083 12.4321 16.9271 12.1567 17.203C11.8813 17.4788 11.663 17.8063 11.5143 18.1666C11.3656 18.5269 11.2894 18.913 11.29 19.3028C11.29 19.3828 11.29 19.4628 11.29 19.5428H24.675C24.5916 19.0261 24.3383 18.5519 23.9553 18.1951C23.5723 17.8384 23.0814 17.6194 22.56 17.5728C22.5843 17.4223 22.596 17.2702 22.595 17.1178C22.5957 16.6711 22.5082 16.2287 22.3376 15.8159C22.1669 15.4031 21.9165 15.028 21.6007 14.7121C21.2848 14.3963 20.9097 14.1459 20.4969 13.9752C20.0841 13.8046 19.6417 13.7171 19.195 13.7178Z" fill="#F8FAFC"/>
</g>
<g style="mix-blend-mode:multiply">
<path d="M101.825 7.88282C100.564 7.88142 99.3469 8.34884 98.4109 9.19429C97.4749 10.0397 96.8865 11.2029 96.76 12.4578C96.0878 12.044 95.3173 11.8171 94.528 11.8005C93.7388 11.784 92.9595 11.9783 92.2705 12.3636C91.5815 12.7489 91.0078 13.3111 90.6087 13.9921C90.2095 14.6732 89.9994 15.4484 90 16.2378C90 16.3578 90 16.4778 90 16.5978H110C109.879 15.825 109.502 15.1149 108.93 14.5811C108.359 14.0473 107.624 13.7205 106.845 13.6528C106.947 12.9347 106.893 12.203 106.687 11.5075C106.481 10.812 106.129 10.1688 105.653 9.62157C105.176 9.07435 104.588 8.63588 103.928 8.33589C103.267 8.03589 102.55 7.88138 101.825 7.88282Z" fill="#F8FAFC"/>
</g>
<path d="M124 36.4326H144C144 36.3126 144 36.1926 144 36.0726C144.001 35.4894 143.886 34.9117 143.663 34.3728C143.44 33.8338 143.113 33.344 142.701 32.9316C142.289 32.5192 141.799 32.1922 141.26 31.9693C140.721 31.7464 140.143 31.632 139.56 31.6326C138.74 31.6309 137.936 31.8596 137.24 32.2926C137.18 31.614 136.985 30.9542 136.666 30.3524C136.346 29.7506 135.909 29.219 135.381 28.7892C134.852 28.3594 134.243 28.0401 133.588 27.8502C132.934 27.6603 132.248 27.6037 131.572 27.6837C130.895 27.7637 130.242 27.9787 129.65 28.316C129.058 28.6533 128.54 29.1059 128.126 29.6472C127.712 30.1885 127.411 30.8073 127.241 31.467C127.071 32.1266 127.035 32.8138 127.135 33.4876C126.359 33.5596 125.63 33.8883 125.062 34.4217C124.494 34.9552 124.12 35.6629 124 36.4326Z" fill="#E8F1F8"/>
<path d="M44.9451 9.85269H67.4451C67.4451 9.72269 67.4451 9.58769 67.4451 9.45269C67.4451 8.12661 66.9183 6.85484 65.9806 5.91716C65.0429 4.97947 63.7712 4.45269 62.4451 4.45269C61.523 4.45069 60.6189 4.70704 59.8351 5.19269C59.6978 3.72273 58.998 2.36262 57.8817 1.39639C56.7654 0.430165 55.3191 -0.0674829 53.8446 0.00736927C52.3702 0.0822214 50.9816 0.723786 49.9689 1.79809C48.9563 2.8724 48.3978 4.29638 48.4101 5.77269C48.4122 6.02878 48.4323 6.2844 48.4701 6.53769C47.5987 6.62285 46.7801 6.99437 46.1423 7.59416C45.5046 8.19395 45.0835 8.98819 44.9451 9.85269Z" fill="#E8F1F8"/>
<path d="M20.655 41.2778H33.36C33.36 41.2028 33.36 41.1228 33.36 41.0478C33.3607 40.6773 33.2882 40.3103 33.1467 39.9679C33.0052 39.6254 32.7975 39.3143 32.5355 39.0523C32.2736 38.7903 31.9624 38.5826 31.62 38.4411C31.2775 38.2997 30.9105 38.2272 30.54 38.2278C30.0204 38.228 29.5113 38.3734 29.07 38.6478C28.9789 37.8287 28.5786 37.0753 27.9508 36.5413C27.3231 36.0074 26.5152 35.7331 25.6921 35.7746C24.869 35.8161 24.0927 36.1701 23.5218 36.7645C22.9509 37.3589 22.6284 38.1487 22.62 38.9728C22.6199 39.1183 22.6299 39.2637 22.65 39.4078C22.1571 39.4539 21.6935 39.6626 21.3323 40.0012C20.9711 40.3397 20.7328 40.7889 20.655 41.2778Z" fill="#E8F1F8"/>
<path d="M100 79.4422V83.6622H100.925C100.235 85.1337 100.089 86.8023 100.512 88.3713C100.936 89.9404 101.903 91.3084 103.24 92.2322V93.5072H112.38V92.2322C113.717 91.3084 114.684 89.9404 115.108 88.3713C115.531 86.8023 115.385 85.1337 114.695 83.6622H115.62V79.4422H108.465V78.1972C126.25 74.2572 110.045 48.6572 110.045 48.6572C90.735 70.4272 106.045 77.4822 107.86 78.2222V79.4422H100Z" fill="#E8F1F8"/>
<path d="M128.88 85.1024V87.6024H129.435C129.178 88.1464 129.045 88.7407 129.045 89.3424C129.045 90.0076 129.206 90.6629 129.514 91.2524C129.822 91.8419 130.269 92.348 130.815 92.7274V93.4874H136.275V92.7274C136.823 92.3488 137.27 91.8431 137.579 91.2535C137.889 90.6639 138.05 90.0081 138.05 89.3424C138.05 88.7407 137.917 88.1464 137.66 87.6024H138.215V85.1024H133.935V84.3524C144.57 81.9974 134.88 66.6924 134.88 66.6924C123.335 79.6924 132.48 83.9274 133.575 84.3674V85.1024H128.88Z" fill="#E8F1F8"/>
<path fill-rule="evenodd" clip-rule="evenodd" d="M150 93.707H0V92.8828H150V93.707Z" fill="#E8F1F8"/>
<g clip-path="url(#clip0)">
<path d="M58.0725 53.3721C58.0725 53.8346 58.4475 54.2096 58.91 54.2096C59.3726 54.2096 59.7476 54.5846 59.7476 55.0472V90.5801C59.7433 90.8832 59.799 91.1841 59.9113 91.4657C60.0236 91.7472 60.1904 92.0038 60.4022 92.2208C60.6139 92.4377 60.8664 92.6107 61.1452 92.7299C61.4239 92.849 61.7235 92.912 62.0266 92.9151H88.4493C89.0595 92.913 89.6441 92.6697 90.0755 92.2383C90.507 91.8069 90.7504 91.2224 90.7525 90.6123V55.0472C90.7525 54.5846 91.1275 54.2096 91.59 54.2096C92.0526 54.2096 92.4276 53.8346 92.4276 53.3721V52.6717C92.4276 51.8223 91.739 51.1338 90.8896 51.1338H59.6104C58.7611 51.1338 58.0725 51.8223 58.0725 52.6717V53.3721ZM64.1769 89.6944C64.1845 89.7947 64.1719 89.8955 64.1397 89.9908C64.1075 90.0862 64.0564 90.174 63.9895 90.2492C63.9226 90.3243 63.8413 90.3852 63.7503 90.4283C63.6594 90.4713 63.5607 90.4955 63.4601 90.4996H63.1058C63.0052 90.4955 62.9065 90.4713 62.8156 90.4283C62.7246 90.3852 62.6432 90.3243 62.5764 90.2492C62.5095 90.174 62.4584 90.0862 62.4262 89.9908C62.394 89.8955 62.3814 89.7947 62.389 89.6944V56.126C62.3846 55.9301 62.4572 55.7402 62.5912 55.5972C62.7252 55.4542 62.91 55.3694 63.1058 55.361H63.4601C63.6559 55.3694 63.8407 55.4542 63.9747 55.5972C64.1087 55.7402 64.1812 55.9301 64.1769 56.126V89.6944ZM72.2301 89.6944C72.2389 89.7943 72.2273 89.8949 72.196 89.9902C72.1648 90.0855 72.1145 90.1735 72.0482 90.2487C71.982 90.324 71.9011 90.3851 71.8105 90.4282C71.72 90.4713 71.6216 90.4956 71.5214 90.4996H71.159C71.0588 90.4956 70.9604 90.4713 70.8698 90.4282C70.7793 90.3851 70.6984 90.324 70.6321 90.2487C70.5659 90.1735 70.5156 90.0855 70.4843 89.9902C70.4531 89.8949 70.4415 89.7943 70.4503 89.6944V56.126C70.4438 55.9308 70.5145 55.741 70.6473 55.5977C70.78 55.4545 70.9639 55.3694 71.159 55.361H71.5214C71.7165 55.3694 71.9004 55.4545 72.0331 55.5977C72.1658 55.741 72.2366 55.9308 72.2301 56.126V89.6944ZM80.2833 89.6944C80.2909 89.7947 80.2783 89.8955 80.2461 89.9908C80.2139 90.0862 80.1629 90.174 80.096 90.2492C80.0291 90.3243 79.9477 90.3852 79.8568 90.4283C79.7658 90.4713 79.6671 90.4955 79.5666 90.4996H79.2122C79.1117 90.4955 79.013 90.4713 78.922 90.4283C78.8311 90.3852 78.7497 90.3243 78.6828 90.2492C78.6159 90.174 78.5648 90.0862 78.5326 89.9908C78.5005 89.8955 78.4878 89.7947 78.4955 89.6944V56.126C78.4911 55.9301 78.5637 55.7402 78.6977 55.5972C78.8317 55.4542 79.0164 55.3694 79.2122 55.361H79.5666C79.7624 55.3694 79.9471 55.4542 80.0811 55.5972C80.2151 55.7402 80.2877 55.9301 80.2833 56.126V89.6944ZM88.3365 89.6944C88.3442 89.7947 88.3315 89.8955 88.2993 89.9908C88.2672 90.0862 88.2161 90.174 88.1492 90.2492C88.0823 90.3243 88.0009 90.3852 87.91 90.4283C87.819 90.4713 87.7203 90.4955 87.6198 90.4996H87.2574C87.1572 90.4956 87.0588 90.4713 86.9682 90.4282C86.8777 90.3851 86.7968 90.324 86.7305 90.2487C86.6643 90.1735 86.614 90.0855 86.5827 89.9902C86.5515 89.8949 86.5399 89.7943 86.5487 89.6944V56.126C86.5422 55.9308 86.6129 55.741 86.7456 55.5977C86.8784 55.4545 87.0623 55.3694 87.2574 55.361H87.6198C87.8156 55.3694 88.0003 55.4542 88.1343 55.5972C88.2683 55.7402 88.3409 55.9301 88.3365 56.126V89.6944Z" fill="#EB5757"/>
<path d="M58.1292 49.3748C58.2002 50.2261 58.9477 50.8588 59.799 50.7881L90.9681 48.2009C91.8138 48.1307 92.4422 47.3876 92.371 46.5419C92.2999 45.6977 91.5585 45.0707 90.7142 45.1407L83.1744 45.766C82.4445 45.8265 81.8032 45.2848 81.7409 44.555C81.6649 43.6409 81.23 42.794 80.5313 42.1995C79.8326 41.605 78.9269 41.3113 78.0123 41.3826L71.4408 41.9381C70.5286 42.0161 69.6844 42.452 69.0928 43.1507C68.5012 43.8493 68.2104 44.7537 68.284 45.6662C68.3418 46.4133 67.7831 47.0658 67.0359 47.1237L59.5514 47.7038C58.6961 47.7701 58.058 48.5198 58.1292 49.3748ZM70.5791 45.481C70.5545 45.1771 70.6505 44.8758 70.8465 44.6422C71.0424 44.4086 71.3225 44.2616 71.626 44.2329L78.2055 43.6935C78.3558 43.6802 78.5072 43.6968 78.6511 43.7424C78.7949 43.7879 78.9283 43.8614 79.0436 43.9587C79.1588 44.056 79.2537 44.1752 79.3227 44.3093C79.3918 44.4434 79.4336 44.5899 79.4457 44.7402C79.508 45.4735 78.9631 46.118 78.2297 46.1787L72.0214 46.6922C71.2897 46.7527 70.646 46.2121 70.5791 45.481Z" fill="#0047BF"/>
</g>
<defs>
<clipPath id="clip0">
<rect width="34.5" height="51.5" fill="white" transform="translate(58 41.3828)"/>
</clipPath>
</defs>
</svg>
