<svg width="24" height="24" viewBox="0 0 24 24" fill="none" xmlns="http://www.w3.org/2000/svg">
<path d="M16.9959 15.2817C16.6875 14.9807 16.6867 14.4848 16.9939 14.1827L18.4399 12.7613H10.7604C10.3404 12.7613 10 12.4205 10 12C10 11.5795 10.3404 11.2387 10.7604 11.2387H18.4399L16.9939 9.81725C16.6867 9.5152 16.6875 9.01925 16.9959 8.71829C17.2948 8.4265 17.7718 8.42734 18.0697 8.72019L20.7154 11.3209C21.0949 11.6939 21.0949 12.3061 20.7154 12.6791L18.0697 15.2798C17.7718 15.5727 17.2948 15.5735 16.9959 15.2817Z" fill="#00ADEF"/>
<path d="M16.741 16.3452C17.0933 16.6119 17.1655 17.1168 16.865 17.4408C15.9045 18.4762 14.6833 19.2426 13.3228 19.6554C11.7061 20.1459 9.97568 20.112 8.37946 19.5586C6.78323 19.0052 5.40318 17.9607 4.43709 16.5747C3.471 15.1888 2.96847 13.5326 3.00153 11.8435C3.03459 10.1543 3.60154 8.51906 4.62112 7.17197C5.64069 5.82489 7.06056 4.83515 8.67722 4.34463C10.2939 3.85411 12.0243 3.88797 13.6205 4.44138C14.9639 4.90712 16.1542 5.7207 17.0734 6.7929C17.361 7.12833 17.2691 7.63008 16.9066 7.88274C16.5442 8.13539 16.0489 8.04229 15.7531 7.71416C15.0331 6.91569 14.1204 6.30809 13.0964 5.9531C11.8195 5.51038 10.4351 5.48329 9.14177 5.8757C7.84845 6.26812 6.71256 7.05991 5.89689 8.13758C5.08123 9.21525 4.62767 10.5235 4.60123 11.8748C4.57478 13.2261 4.9768 14.551 5.74967 15.6598C6.52254 16.7686 7.62659 17.6042 8.90357 18.0469C10.1805 18.4896 11.5649 18.5167 12.8582 18.1243C13.8953 17.8096 14.8311 17.2382 15.5817 16.4685C15.8902 16.1522 16.3887 16.0786 16.741 16.3452Z" fill="#00ADEF"/>
</svg>
