<svg width="24" height="24" viewBox="0 0 24 24" fill="none" xmlns="http://www.w3.org/2000/svg">
<path fill-rule="evenodd" clip-rule="evenodd" d="M10.0146 4.98449C10.0146 3.88849 10.9031 3 11.9991 3C13.0951 3 13.9836 3.88849 13.9836 4.98449C13.9836 5.16575 14.103 5.32435 14.2741 5.3841C15.1241 5.68094 15.8992 6.13948 16.5631 6.7232C16.6887 6.83363 16.8708 6.85596 17.0153 6.77185C17.9682 6.21741 19.1849 6.54342 19.7329 7.5C20.2809 8.45659 19.9527 9.68151 18.9998 10.236C18.8557 10.3198 18.7844 10.4878 18.8161 10.6515C18.9006 11.0879 18.9448 11.5387 18.9448 12C18.9448 12.4613 18.9006 12.9121 18.8161 13.3484C18.7844 13.5122 18.8557 13.6802 18.9998 13.7641C19.9527 14.3185 20.2809 15.5434 19.7329 16.5C19.1849 17.4566 17.9682 17.7826 17.0153 17.2282C16.8708 17.144 16.6887 17.1664 16.5631 17.2768C15.8992 17.8605 15.1241 18.3191 14.2741 18.6159C14.103 18.6757 13.9836 18.8343 13.9836 19.0155C13.9836 20.1115 13.0951 21 11.9991 21C10.9031 21 10.0146 20.1115 10.0146 19.0155C10.0146 18.8343 9.89528 18.6757 9.72416 18.6159C8.87413 18.3191 8.09905 17.8605 7.43514 17.2768C7.30953 17.1664 7.12745 17.144 6.98288 17.2282C6.03001 17.7826 4.81331 17.4566 4.26531 16.5C3.71731 15.5434 4.04552 14.3185 4.99839 13.7641C5.14252 13.6802 5.21385 13.5122 5.18215 13.3484C5.09766 12.9121 5.05339 12.4613 5.05339 12C5.05339 11.5387 5.09766 11.0879 5.18215 10.6515C5.21385 10.4878 5.14252 10.3198 4.9984 10.236C4.04553 9.68151 3.71732 8.45659 4.26533 7.5C4.81333 6.54342 6.03003 6.21741 6.9829 6.77185C7.12746 6.85596 7.30953 6.83363 7.43513 6.7232C8.09904 6.13948 8.87413 5.68094 9.72416 5.38411C9.89528 5.32435 10.0146 5.16575 10.0146 4.98449ZM12 14C13.1046 14 14 13.1046 14 12C14 10.8954 13.1046 10 12 10C10.8954 10 10 10.8954 10 12C10 13.1046 10.8954 14 12 14Z" fill="#00ADEF"/>
</svg>
